<svg width="311" height="362" viewBox="0 0 311 362" fill="none" xmlns="http://www.w3.org/2000/svg">
<g filter="url(#filter0_f_9_2680)">
<ellipse cx="78.1031" cy="352" rx="72" ry="4" fill="#F3F3F3"/>
</g>
<g filter="url(#filter1_f_9_2680)">
<ellipse cx="243.103" cy="350" rx="62" ry="6" fill="#F3F3F3"/>
</g>
<path d="M241.982 70.0772C241.325 70.0772 240.74 69.858 240.083 69.785C239.206 69.7119 238.33 69.9311 237.453 69.785C234.458 69.4928 221.821 62.4804 236.65 51.0853C255.057 36.9144 249.798 70.0041 241.982 70.0772Z" fill="#2C3945"/>
<path d="M216.854 64.8909C220.726 69.2006 227.957 67.7397 225.839 57.4403C224.305 49.9166 210.353 57.7325 216.854 64.8909Z" fill="#534137"/>
<path d="M234.166 75.1172C226.204 75.1172 218.169 72.7798 234.166 72.7798C250.163 72.7798 242.274 75.1172 234.166 75.1172Z" fill="#4C4C4C"/>
<path d="M258.49 92.6482C248.629 85.5627 239.498 85.7088 243.224 67.3013L226.277 66.2787C225.62 79.9382 226.496 80.8878 220.799 85.928C219.557 87.0237 211.522 91.6255 211.522 91.6255C224.232 102.948 247.533 101.998 258.49 92.6482Z" fill="#FDA98B"/>
<path d="M222.04 40.4937C214.955 66.717 235.189 85.0515 246.219 64.7448C266.014 28.222 227.884 19.0913 222.04 40.4937Z" fill="#FDA98B"/>
<path d="M241.032 32.8238C241.617 37.1335 238.111 37.7179 235.116 37.7909C225.474 38.2292 221.018 50.7931 220.872 55.0297C213.567 38.0101 228.395 20.1139 237.964 24.3505C240.813 25.5923 240.667 30.1942 241.032 32.8238Z" fill="#534137"/>
<path d="M251.405 53.2767C248.994 52.108 248.045 57.5864 247.607 60.2891C246.803 65.6214 255.203 55.1028 251.405 53.2767Z" fill="#FDA98B"/>
<path d="M219.776 48.2364C222.406 47.8712 221.821 53.3496 221.456 56.0523C220.726 61.3846 215.613 48.8208 219.776 48.2364Z" fill="#FDA98B"/>
<path d="M227.665 52.1809C226.789 52.0348 226.569 48.5286 228.688 48.8208C229.857 48.9668 229.053 52.4 227.665 52.1809Z" fill="#333333"/>
<path d="M242.785 54.4453C243.662 54.5914 244.831 51.2313 242.712 50.9391C241.544 50.793 241.324 54.2262 242.785 54.4453Z" fill="#333333"/>
<path d="M230.441 44.7302C231.829 45.1685 231.463 46.5564 230.441 46.3372C228.907 46.045 228.687 45.3146 225.62 46.1181C222.259 46.9946 226.204 43.4154 230.514 44.7302H230.441Z" fill="#3A302A"/>
<path d="M242.055 46.6295C240.594 46.4834 240.448 47.8713 241.471 48.0904C242.785 48.3826 243.443 47.8713 245.999 49.8435C248.775 52.0349 246.511 47.1408 242.055 46.6295Z" fill="#3A302A"/>
<path d="M232.486 57.8054C232.267 58.0976 232.34 58.4629 232.632 58.6089C235.481 60.362 235.481 58.8281 234.604 58.755C231.609 58.5359 234.75 57.6593 235.554 52.5461C235.627 52.0348 235.043 51.8887 234.897 52.327C234.677 53.0575 234.458 55.541 232.486 57.8054Z" fill="#EE795C"/>
<path d="M238.111 64.0143C238.257 64.0143 238.403 64.1604 238.257 64.3065C231.317 71.3919 228.396 62.4073 229.491 62.9917C231.171 63.9412 234.385 64.8178 238.111 64.0143Z" fill="white"/>
<path d="M219.995 51.0123C220.141 50.7931 220.433 51.0123 220.36 51.1584C219.703 52.6193 219.995 53.5689 220.58 54.0071C220.653 54.0071 220.653 54.2263 220.58 54.2993C220.141 54.8837 219.046 53.0575 219.995 51.0123Z" fill="#EE795C"/>
<path d="M249.652 58.6821C250.309 58.0977 250.309 57.0751 250.309 56.1255C250.309 55.8333 250.674 55.8333 250.674 56.1255C250.674 59.6317 248.994 59.1934 249.579 58.6821H249.652Z" fill="#EE795C"/>
<path d="M226.861 69.4929C232.048 75.3365 239.937 73.2912 242.128 69.9311C243.005 68.6163 242.128 73.0721 235.627 73.5104C228.395 74.0217 225.401 67.7398 226.861 69.4198V69.4929Z" fill="#EE795C"/>
<path d="M235.116 190.091C236.504 217.41 235.7 242.538 239.352 260.142C247.534 299.44 244.831 332.165 244.831 332.165C248.264 335.452 254.765 334.795 254.692 331.581C254.108 302.216 264.188 292.574 258.637 264.452C251.259 227.125 265.941 186.147 265.064 180.376C262.362 161.969 233.363 154.664 235.189 190.164L235.116 190.091Z" fill="#FDA98B"/>
<path d="M232.778 271.245C236.503 292.793 232.267 306.38 231.682 333.553C231.609 337.57 225.327 338.52 221.821 334.429C221.821 334.429 221.164 301.048 214.955 267.52C207.797 228.659 204.582 187.389 204.802 191.333C203.56 168.981 215.539 163.941 224.086 165.694C247.826 170.515 227.008 237.571 232.778 271.245Z" fill="#FDA98B"/>
<path d="M181.208 177.454C181.208 181.618 181.5 181.034 185.006 183.079C187.417 184.467 190.704 185.708 195.087 183.298C195.817 182.933 212.837 184.54 215.247 153.787C215.905 144.876 214.224 140.858 213.567 131.947C212.983 124.277 221.164 92.137 209.915 88.7038C197.789 85.0515 190.777 120.333 190.046 127.345C188.878 139.763 181.354 159.85 181.281 177.381L181.208 177.454Z" fill="#333333"/>
<path d="M190.193 185.051C187.928 185.051 186.102 184.175 184.787 183.444C184.276 183.152 183.765 182.86 183.399 182.641C181.062 181.326 180.77 181.107 180.843 177.454C180.916 166.863 183.691 155.321 186.102 145.168C187.709 138.594 189.17 132.312 189.608 127.418C190.193 121.063 195.452 95.351 204.217 89.4343C206.043 88.1925 207.943 87.9003 209.915 88.4116C218.534 90.9682 216.343 108.791 214.736 121.794C214.225 126.176 213.713 129.975 213.859 131.947C214.078 135.161 214.444 137.717 214.809 140.128C215.466 144.365 215.978 148.09 215.539 153.788C214.078 172.195 207.212 182.494 195.671 183.517C195.452 183.517 195.233 183.517 195.16 183.517C193.334 184.54 191.653 184.905 190.193 184.905V185.051ZM181.573 177.454C181.573 180.741 181.573 180.814 183.765 181.983C184.203 182.202 184.641 182.421 185.152 182.787C187.271 184.028 190.558 185.343 194.867 183.006C195.014 182.933 195.16 182.933 195.598 182.86C209.696 181.618 213.786 166.351 214.809 153.788C215.247 148.163 214.736 144.511 214.078 140.274C213.713 137.791 213.348 135.234 213.129 132.02C212.983 129.975 213.421 126.103 214.005 121.72C215.466 109.668 217.731 91.5526 209.696 89.1421C208.016 88.6308 206.263 88.923 204.656 90.0187C196.109 95.7893 190.996 121.136 190.339 127.491C189.827 132.458 188.366 138.74 186.759 145.314C184.349 155.468 181.573 166.936 181.5 177.454H181.573Z" fill="#4C4C4C"/>
<path d="M255.203 148.309C267.256 170.953 266.525 179.938 272.223 222.743C272.442 224.277 271.419 225.737 269.885 226.03C243.808 230.924 227.008 232.019 203.122 227.052C201.734 226.76 200.711 225.445 200.857 223.984C203.56 179.134 200.857 177.454 213.567 149.478C225.254 152.107 243.297 150.574 255.203 148.382V148.309Z" fill="#FEBA51"/>
<path d="M191.069 208.791C192.165 208.133 192.895 210.398 191.288 210.617C190.777 210.69 190.193 210.398 189.9 209.959C189.389 211.055 191.361 212.005 190.996 213.173C190.193 215.292 180.039 210.617 182.961 204.481C183.545 203.166 184.422 204.262 185.298 204.846C190.923 208.499 195.452 205.504 191.142 208.791H191.069Z" fill="#EE795C"/>
<path d="M180.77 201.705C179.966 202.655 179.966 202.947 180.039 204.262C180.405 208.718 178.798 208.718 181.208 211.274C185.372 215.803 188.805 217.41 188.586 215.365C188.366 213.028 180.112 210.398 184.203 204.043C187.125 199.514 190.266 204.408 189.17 207.038C188.878 207.768 187.49 209.302 188.586 211.494C193.918 208.207 192.165 202.509 192.676 199.149C192.895 197.834 194.502 192.94 190.777 192.137C188.513 191.625 188.22 192.94 180.843 201.779L180.77 201.705Z" fill="#FDA98B"/>
<path d="M255.203 148.309C241.105 152.765 225.181 153.276 213.567 149.405L214.882 141.077L253.523 140.055L255.276 148.309H255.203Z" fill="#333333"/>
<path d="M269.009 200.318C267.183 200.464 268.79 196.227 269.082 191.552C269.593 183.298 265.21 181.764 265.137 185.27C265.137 186.512 266.087 188.776 264.042 190.164C263.676 190.383 262.654 190.676 262.8 189.507C263.165 186.95 261.339 187.754 263.75 179.646C264.772 176.212 264.261 171.245 267.767 171.245C271.565 171.245 271.419 177.381 271.638 178.915C274.122 194.036 269.739 200.098 269.009 200.171V200.318Z" fill="#FDA98B"/>
<path d="M245.342 103.094C250.163 116.972 286.613 130.048 279.893 136.476C274.341 141.808 270.032 148.528 267.402 155.833C265.795 160.361 267.767 158.901 269.812 163.21C272.004 167.958 273.172 169.127 278.286 168.835C283.399 168.543 289.535 173.875 293.114 170.077C299.761 162.991 304.582 153.276 304.801 143.488C304.947 136.987 307.65 128.806 304.217 122.524C302.318 118.945 298.519 116.972 295.89 113.904C287.27 103.97 274.341 101.195 263.53 91.7716C253.815 83.2253 242.201 93.8899 245.342 103.167V103.094Z" fill="#333333"/>
<path d="M289.754 171.83C288.074 171.83 286.175 171.172 284.348 170.588C282.303 169.857 280.185 169.127 278.213 169.273C272.953 169.565 271.638 168.397 269.374 163.429C268.644 161.895 267.986 161.092 267.402 160.508C266.306 159.339 265.941 158.755 266.964 155.76C269.593 148.382 273.976 141.589 279.527 136.256C280.039 135.745 280.258 135.234 280.258 134.576C279.966 131.655 273.465 127.418 266.598 122.889C257.541 116.972 247.387 110.252 244.904 103.24C243.297 98.6379 245.342 93.1595 249.725 90.1646C254.181 87.1698 259.367 87.6811 263.677 91.4795C268.498 95.7161 273.83 98.6379 279.016 101.414C285.371 104.847 291.361 108.134 296.109 113.685C297.131 114.854 298.3 115.877 299.469 116.899C301.295 118.506 303.267 120.186 304.436 122.378C306.92 126.907 306.262 132.385 305.605 137.644C305.312 139.763 305.093 141.735 305.093 143.561C304.947 152.838 300.638 162.626 293.333 170.442C292.31 171.538 291.069 171.903 289.754 171.903V171.83ZM278.651 168.47C280.623 168.47 282.595 169.2 284.568 169.857C287.709 170.953 290.703 171.976 292.749 169.857C299.907 162.188 304.144 152.546 304.363 143.488C304.363 141.589 304.655 139.617 304.874 137.498C305.532 132.385 306.189 127.053 303.779 122.67C302.61 120.552 300.857 119.018 298.958 117.411C297.789 116.388 296.547 115.365 295.524 114.124C290.85 108.718 284.933 105.504 278.651 102.071C273.465 99.2223 268.132 96.3005 263.238 91.9908C259.148 88.4116 254.327 87.9733 250.163 90.749C246.073 93.5248 244.173 98.638 245.634 102.948C247.972 109.741 258.125 116.388 267.037 122.232C274.414 127.053 280.696 131.216 281.061 134.503C281.134 135.38 280.842 136.11 280.112 136.768C274.56 142.027 270.324 148.747 267.694 155.979C266.744 158.608 267.037 158.974 267.986 159.996C268.571 160.581 269.301 161.457 270.104 163.137C272.223 167.739 273.245 168.835 278.213 168.543C278.359 168.543 278.505 168.543 278.651 168.543V168.47Z" fill="#4C4C4C"/>
<path d="M265.503 171.976L271.346 176.286L278.213 168.908C274.633 168.324 271.931 166.497 269.739 163.283L265.503 171.976Z" fill="#333333"/>
<path d="M222.844 84.0289C224.451 89.6534 243.808 89.2882 245.05 83.7367C250.821 85.5628 256.007 87.0237 261.266 90.0917C266.014 122.232 259.586 140.347 251.989 141.662C236.138 144.219 226.715 144.73 214.882 142.173C204.51 138.74 205.532 103.167 209.915 88.7038C209.915 88.7038 214.59 86.5124 222.917 83.9558L222.844 84.0289Z" fill="#333333"/>
<path d="M230.222 144.292C225.109 144.292 220.141 143.78 214.736 142.611C203.633 138.959 205.313 102.436 209.477 88.6307V88.4847H209.696C209.696 88.4847 214.444 86.2933 222.771 83.7367L223.136 83.5906V83.9558C224.013 86.6585 229.491 87.9003 234.604 87.7542C240.083 87.6081 244.247 85.9281 244.758 83.7367V83.3715C244.831 83.3715 247.095 84.1019 247.095 84.1019C252.062 85.6359 256.81 87.1698 261.485 89.8725H261.631C261.631 89.9456 261.631 90.1647 261.631 90.1647C266.306 122.013 260.17 140.712 251.989 142.173C243.589 143.561 236.796 144.365 230.295 144.365L230.222 144.292ZM210.134 89.069C205.678 104.189 205.094 138.667 214.955 141.954C227.227 144.584 237.015 143.853 251.843 141.443C258.563 140.274 265.722 123.62 260.901 90.4569C256.299 87.8272 251.697 86.3663 246.803 84.8324L245.269 84.3211C244.246 87.2429 238.914 88.4116 234.531 88.5577C229.418 88.7038 223.867 87.5351 222.625 84.6132C215.393 86.8776 211.011 88.7768 210.134 89.1421V89.069Z" fill="#4C4C4C"/>
<path d="M231.683 153.641C230.879 153.641 230.441 153.495 230.076 153.203C229.71 152.838 229.637 152.4 229.564 152.034C229.491 150.574 229.345 149.405 229.272 148.382C228.98 144.876 228.907 143.853 229.491 143.196C229.856 142.831 230.295 142.758 230.587 142.685C231.61 142.685 232.413 142.539 233.144 142.465C235.846 142.246 236.796 142.173 237.453 142.685C237.818 143.05 237.892 143.488 237.965 143.853C238.038 145.314 238.184 146.483 238.257 147.506C238.549 151.012 238.622 152.034 238.038 152.692C237.672 153.057 237.234 153.13 236.942 153.203C235.919 153.203 235.116 153.349 234.385 153.422C233.217 153.495 232.34 153.568 231.683 153.568V153.641ZM235.919 143.707C235.335 143.707 234.312 143.78 233.29 143.853C232.559 143.853 231.683 143.999 230.733 144.072C230.587 144.072 230.514 144.072 230.514 144.072C230.295 144.365 230.514 145.972 230.66 148.236C230.733 149.259 230.806 150.427 230.952 151.888C230.952 152.034 230.952 152.108 230.952 152.108C231.171 152.254 232.632 152.108 234.239 152.034C234.97 152.034 235.846 151.888 236.796 151.815C236.942 151.815 237.015 151.815 237.015 151.815C237.234 151.523 237.015 149.916 236.869 147.652C236.796 146.629 236.723 145.46 236.577 143.999C236.577 143.853 236.577 143.78 236.577 143.78C236.504 143.78 236.285 143.707 235.919 143.707Z" fill="url(#paint0_linear_9_2680)"/>
<path d="M193.845 193.013L186.687 193.159L185.006 183.079C188.293 184.686 191.581 184.686 195.087 183.298L193.845 192.94V193.013Z" fill="#333333"/>
<path d="M249.798 78.1852C250.967 58.8281 257.906 49.0399 250.017 33.116C245.78 24.6427 240.156 24.0583 239.425 27.5645C239.352 28.0028 249.579 83.0062 249.871 78.1852H249.798Z" fill="#534137"/>
<path d="M244.977 83.8097C244.246 89.2881 223.94 90.0186 222.771 84.1019L224.889 73.6564C231.098 75.2634 236.577 75.6286 243.151 73.6564L244.977 83.8828V83.8097Z" fill="#333333"/>
<path d="M240.886 33.4813C240.886 33.4813 240.886 33.4813 240.813 33.4813C240.594 33.4813 240.521 33.1891 240.521 33.043C241.032 31.2169 240.74 29.2446 239.791 27.6376C239.718 27.4915 239.791 27.1994 239.937 27.1263C240.083 27.0533 240.375 27.1263 240.448 27.2724C241.544 29.0255 241.836 31.2169 241.325 33.2621C241.325 33.4082 241.105 33.5543 240.959 33.5543L240.886 33.4813Z" fill="#3A302A"/>
<path d="M230.222 28.7332C230.148 28.7332 230.075 28.7332 230.002 28.6602C229.856 28.5141 229.856 28.295 230.002 28.1489C231.975 26.0306 234.75 25.5923 236.503 25.8845C237.672 26.0306 238.549 26.5419 238.841 27.1262C238.914 27.3454 238.841 27.5645 238.695 27.6376C238.476 27.7106 238.257 27.6376 238.183 27.4915C238.037 27.1993 237.453 26.8341 236.43 26.688C234.823 26.4688 232.34 26.8341 230.587 28.7332C230.514 28.8063 230.441 28.8793 230.295 28.8793L230.222 28.7332Z" fill="#3A302A"/>
<path d="M235.481 30.6325C235.262 30.6325 234.969 30.6325 234.75 30.6325C234.531 30.6325 234.385 30.4133 234.458 30.1942C234.458 29.9751 234.677 29.829 234.896 29.902C235.7 30.0481 236.503 29.902 237.307 29.6829C237.745 29.6098 238.257 29.5368 238.695 29.4637C239.279 29.4637 239.425 29.6829 239.498 29.829C239.571 30.0481 239.498 30.2672 239.279 30.3403C239.133 30.3403 238.914 30.3403 238.841 30.1942C238.841 30.1942 238.841 30.1942 238.768 30.1942C238.33 30.1942 237.891 30.3403 237.453 30.4133C236.796 30.5594 236.138 30.6325 235.481 30.6325Z" fill="#3A302A"/>
<path d="M230.002 38.3021C229.929 38.3021 229.856 38.3021 229.783 38.2291C229.637 38.083 229.637 37.8638 229.783 37.7177C232.194 35.1611 233.728 35.0881 235.262 35.0151C236.065 35.0151 236.869 34.942 237.818 34.5037C238.476 34.2116 239.206 33.5541 239.352 32.7506C239.352 32.5315 239.571 32.3854 239.791 32.4585C240.01 32.4585 240.156 32.6776 240.083 32.8967C239.937 33.8463 239.206 34.7959 238.184 35.2342C237.088 35.7455 236.211 35.7455 235.408 35.8186C233.947 35.8186 232.632 35.9646 230.441 38.3021C230.441 38.3752 230.295 38.4482 230.149 38.4482L230.002 38.3021Z" fill="#3A302A"/>
<path d="M221.018 41.5893C220.799 41.5893 220.653 41.3702 220.726 41.151C221.237 37.6448 223.282 34.5769 225.035 31.8742C225.182 31.7281 225.401 31.6551 225.547 31.8012C225.693 31.9473 225.766 32.1664 225.62 32.3125C223.867 34.9422 221.895 37.937 221.383 41.2971C221.383 41.5163 221.164 41.5893 221.018 41.5893Z" fill="#3A302A"/>
<path d="M222.333 45.4607C222.113 45.4607 221.967 45.2416 222.04 45.0224C222.552 41.9545 222.99 41.224 224.597 39.3979C224.743 39.2518 224.962 39.2518 225.108 39.3979C225.254 39.544 225.254 39.7631 225.108 39.9092C223.72 41.5893 223.282 42.1736 222.771 45.1685C222.771 45.3146 222.552 45.4607 222.406 45.4607H222.333Z" fill="#3A302A"/>
<path d="M248.264 34.577C248.045 34.577 247.899 34.4309 247.899 34.2118C247.899 31.6552 245.415 29.3177 243.662 28.4412C242.859 28.0029 242.42 28.0759 242.347 28.149C242.201 28.2951 241.982 28.222 241.836 28.0759C241.69 27.9298 241.763 27.7107 241.909 27.5646C242.493 27.1994 243.37 27.4916 244.027 27.7837C245.78 28.6603 248.629 31.1438 248.629 34.1387C248.629 34.3579 248.483 34.5039 248.264 34.5039V34.577Z" fill="#3A302A"/>
<path d="M244.466 33.3352C244.319 33.3352 244.173 33.1891 244.1 33.043C243.954 32.5317 243.078 31.509 242.42 31.509C242.201 31.509 242.055 31.3629 242.055 31.1438C242.055 30.9247 242.201 30.7786 242.42 30.7786C243.443 30.7786 244.685 32.0203 244.831 32.8969C244.831 33.116 244.758 33.2621 244.539 33.3352C244.539 33.3352 244.539 33.3352 244.466 33.3352Z" fill="#3A302A"/>
<path d="M244.977 49.2591C244.831 49.2591 244.685 49.113 244.612 48.9669C243.297 43.4885 242.786 40.2745 242.493 38.1562C242.201 36.33 242.128 35.3804 241.617 34.65C241.544 34.5039 241.617 34.2117 241.763 34.1386C241.909 34.0656 242.128 34.1386 242.274 34.2847C242.859 35.1613 243.005 36.257 243.224 38.0831C243.516 40.2014 243.954 43.4154 245.269 48.8208C245.269 49.04 245.269 49.186 244.977 49.2591C244.977 49.2591 244.977 49.2591 244.904 49.2591H244.977Z" fill="#3A302A"/>
<path d="M250.528 54.4454C250.309 54.4454 250.163 54.2263 250.236 54.0071V53.8611C250.894 49.4053 251.697 43.9268 249.652 39.325C249.579 39.1058 249.652 38.8867 249.871 38.8136C250.09 38.7406 250.309 38.8136 250.382 39.0328C252.574 43.8538 251.77 49.4783 251.113 54.0071V54.1532C251.113 54.3724 250.894 54.4454 250.747 54.4454H250.528Z" fill="#3A302A"/>
<path d="M249.213 66.7901C248.994 66.7901 248.848 66.644 248.848 66.4979C248.41 62.9187 247.752 59.4125 246.949 55.9063C246.949 55.6872 247.022 55.5411 247.241 55.468C247.46 55.468 247.606 55.5411 247.679 55.7602C248.483 59.2664 249.14 62.8456 249.652 66.4249C249.652 66.644 249.506 66.7901 249.359 66.8631L249.213 66.7901Z" fill="#3A302A"/>
<path d="M217.658 62.5534C217.658 62.5534 217.512 62.5534 217.439 62.5534C216.489 62.0421 216.124 61.0925 216.416 59.8507C216.781 58.4628 217.877 57.148 218.754 57.075C218.973 57.075 219.119 57.221 219.119 57.4402C219.119 57.6593 218.973 57.8054 218.754 57.8054C218.388 57.8054 217.439 58.828 217.146 59.9968C216.927 60.8733 217.146 61.4577 217.804 61.8229C217.95 61.896 218.023 62.1151 217.95 62.3342C217.95 62.4803 217.731 62.5534 217.658 62.5534Z" fill="#3A302A"/>
<path d="M222.552 64.3065C222.479 64.3065 222.406 64.3065 222.333 64.2335C221.164 63.1378 220.507 61.5308 220.507 59.9968C220.507 59.7777 220.653 59.6316 220.872 59.6316C221.091 59.6316 221.237 59.7777 221.237 59.9968C221.237 61.3847 221.894 62.7726 222.844 63.7221C222.99 63.8682 222.99 64.0874 222.844 64.2335C222.771 64.3065 222.698 64.3796 222.552 64.3796V64.3065Z" fill="#3A302A"/>
<path d="M221.018 65.9135C219.995 65.7674 219.046 65.183 218.461 64.3065C218.315 64.1604 218.461 63.9413 218.534 63.7952C218.68 63.6491 218.899 63.7952 219.046 63.8682C219.484 64.5987 220.287 65.037 221.091 65.183C221.31 65.183 221.456 65.4022 221.383 65.6213C221.383 65.8405 221.164 65.9135 221.018 65.9135Z" fill="#3A302A"/>
<path d="M286.175 139.763C286.028 139.763 285.882 139.69 285.809 139.544C284.933 137.06 283.764 134.796 281.573 134.869H280.842L285.371 128.441C285.517 128.295 285.736 128.222 285.882 128.368C286.028 128.514 286.102 128.733 285.955 128.879L282.23 134.138C284.787 134.576 285.882 137.717 286.467 139.251C286.467 139.471 286.467 139.69 286.248 139.763C286.248 139.763 286.175 139.763 286.102 139.763H286.175Z" fill="#4C4C4C"/>
<path d="M295.524 127.929C295.378 127.929 295.159 127.783 295.159 127.637C294.867 126.03 295.524 125.081 296.182 124.131C297.131 122.67 298.081 121.209 296.839 117.338C296.839 117.119 296.839 116.899 297.058 116.899C297.277 116.899 297.497 116.899 297.497 117.119C298.811 121.355 297.716 123.108 296.766 124.496C296.182 125.446 295.671 126.176 295.89 127.491C295.89 127.71 295.817 127.856 295.597 127.929H295.524Z" fill="#4C4C4C"/>
<path d="M195.014 183.663L194.648 182.933C194.064 181.837 193.772 180.595 193.845 179.353C193.845 179.134 194.064 178.988 194.21 178.988C194.429 178.988 194.575 179.134 194.575 179.353C194.575 180.157 194.648 181.033 194.94 181.764C195.817 179.938 196.913 178.258 198.301 176.797C198.447 176.651 198.666 176.651 198.812 176.797C198.958 176.943 198.958 177.162 198.812 177.308C197.278 178.842 196.036 180.741 195.233 182.787L194.94 183.517L195.014 183.663Z" fill="#4C4C4C"/>
<path d="M185.079 182.056C184.933 182.056 184.787 181.983 184.714 181.764C184.203 180.084 184.13 178.185 184.568 176.432C184.568 176.212 184.787 176.139 185.006 176.139C185.225 176.139 185.298 176.359 185.298 176.578C184.86 178.185 184.933 179.938 185.445 181.472C185.445 181.691 185.445 181.91 185.225 181.91C185.225 181.91 185.152 181.91 185.079 181.91V182.056Z" fill="#4C4C4C"/>
<path d="M270.689 161.969C270.543 161.969 270.324 161.823 270.324 161.677C269.958 159.339 270.762 156.855 272.442 155.248C272.588 155.102 272.807 155.102 272.953 155.248C273.099 155.395 273.099 155.614 272.953 155.76C271.419 157.148 270.689 159.412 271.054 161.53C271.054 161.75 270.981 161.896 270.762 161.969H270.689Z" fill="#4C4C4C"/>
<path d="M278.213 167.958C278.066 167.958 277.92 167.885 277.847 167.666C277.847 167.447 277.847 167.301 278.14 167.228C280.258 166.644 282.157 165.329 283.472 163.503C283.618 163.356 283.837 163.283 283.983 163.429C284.129 163.576 284.202 163.795 284.056 163.941C282.668 165.913 280.623 167.374 278.286 167.958C278.286 167.958 278.286 167.958 278.213 167.958Z" fill="#4C4C4C"/>
<path d="M198.082 125.811C198.082 125.811 197.935 125.811 197.862 125.811C194.721 123.912 192.968 119.967 193.553 116.315C193.553 116.096 193.772 115.95 193.991 116.023C194.21 116.023 194.356 116.242 194.283 116.461C193.772 119.894 195.379 123.474 198.228 125.227C198.374 125.3 198.447 125.592 198.374 125.738C198.374 125.884 198.155 125.884 198.082 125.884V125.811Z" fill="#4C4C4C"/>
<path d="M205.824 152.107C205.751 152.107 205.605 152.107 205.532 151.961C205.386 151.815 205.386 151.596 205.532 151.45C206.189 150.939 206.774 150.427 207.285 149.989C210.645 147.213 212.325 145.825 212.106 143.926C212.106 143.707 212.252 143.561 212.398 143.488C212.617 143.488 212.764 143.634 212.837 143.78C213.129 146.045 211.303 147.579 207.723 150.5C207.212 150.939 206.555 151.45 205.97 151.961C205.97 151.961 205.824 152.034 205.751 152.034L205.824 152.107Z" fill="#4C4C4C"/>
<path d="M217.731 140.858C217.658 140.858 217.512 140.858 217.438 140.712C215.539 138.74 214.444 135.818 214.517 133.042C214.517 132.823 214.736 132.677 214.882 132.677C215.101 132.677 215.247 132.823 215.247 133.042C215.174 135.672 216.124 138.302 217.95 140.201C218.096 140.347 218.096 140.566 217.95 140.712C217.95 140.712 217.804 140.785 217.658 140.785L217.731 140.858Z" fill="#4C4C4C"/>
<path d="M246.219 140.42C246.073 140.42 246 140.42 245.927 140.274C245.78 140.128 245.853 139.909 246 139.763C249.141 137.498 251.186 133.846 251.478 129.902C251.478 129.682 251.697 129.536 251.843 129.536C252.062 129.536 252.208 129.756 252.208 129.902C251.916 133.992 249.725 137.864 246.438 140.274C246.438 140.274 246.292 140.274 246.219 140.274V140.42Z" fill="#4C4C4C"/>
<path d="M215.539 227.052C215.32 227.052 215.174 226.906 215.174 226.687C213.64 202.363 215.978 175.409 221.602 152.692C221.602 152.473 221.821 152.4 222.04 152.4C222.26 152.4 222.333 152.619 222.333 152.838C216.781 175.482 214.444 202.363 215.978 226.614C215.978 226.833 215.832 226.979 215.612 226.979L215.539 227.052Z" fill="#333333"/>
<path d="M255.13 226.03C254.911 226.03 254.765 225.811 254.765 225.664C256.591 196.665 254.181 171.903 247.533 152.034C247.533 151.815 247.533 151.596 247.753 151.596C247.972 151.596 248.191 151.596 248.191 151.815C254.911 171.757 257.322 196.665 255.495 225.738C255.495 225.957 255.349 226.103 255.13 226.103V226.03Z" fill="#333333"/>
<path d="M207.943 165.986C207.87 165.986 207.724 165.986 207.65 165.84C207.504 165.694 207.504 165.475 207.65 165.329C212.545 161.019 215.612 155.541 217.95 150.72C218.023 150.5 218.242 150.427 218.461 150.573C218.68 150.646 218.753 150.866 218.607 151.085C216.27 155.979 213.129 161.53 208.162 165.913C208.162 165.913 208.016 165.986 207.943 165.986Z" fill="#333333"/>
<path d="M261.266 162.845C261.266 162.845 261.266 162.845 261.193 162.845C256.299 161.53 251.332 154.08 250.017 149.551C250.017 149.332 250.017 149.186 250.309 149.113C250.528 149.113 250.674 149.113 250.748 149.405C252.062 154.299 257.102 161.019 261.339 162.188C261.558 162.188 261.631 162.48 261.631 162.626C261.631 162.772 261.412 162.918 261.266 162.918V162.845Z" fill="#333333"/>
<path d="M203.049 350.5C202.683 349.915 202.61 349.185 202.83 348.527C203.56 346.628 222.479 333.991 221.748 334.503C225.255 336.694 229.856 335.598 231.61 333.626C232.851 336.183 236.357 345.386 232.851 346.336C230.806 346.92 204.583 353.056 202.976 350.5H203.049Z" fill="#333333"/>
<path d="M205.824 351.449C204.217 351.449 203.049 351.23 202.756 350.719C202.318 350.061 202.245 349.185 202.537 348.381C203.195 346.555 217.877 336.694 221.164 334.503L221.602 334.137C221.748 334.137 221.821 334.064 221.821 334.064H222.113V334.21C225.474 336.256 229.783 335.014 231.317 333.334L231.682 332.896L231.902 333.407C232.924 335.598 235.627 342.538 234.312 345.386C234.02 346.044 233.582 346.409 232.924 346.628C232.705 346.628 213.494 351.376 205.751 351.376L205.824 351.449ZM203.414 350.28C204.656 352.326 228.541 347.139 232.851 345.898C233.289 345.752 233.582 345.532 233.801 345.094C234.823 342.83 232.851 336.986 231.609 334.21C229.637 335.963 225.327 336.986 221.894 334.868C219.484 336.402 203.852 347.066 203.341 348.6C203.122 349.185 203.195 349.769 203.487 350.28H203.414Z" fill="#FFFFFB"/>
<path d="M213.129 345.825C212.398 345.825 211.522 345.605 210.864 345.24C210.207 344.948 209.404 344.437 209.257 343.706C209.184 343.341 209.404 342.903 209.769 342.83C210.134 342.757 210.572 342.976 210.645 343.341C210.645 343.414 210.937 343.706 211.595 343.998C212.398 344.364 213.202 344.437 213.421 344.291C213.786 344.144 214.225 344.291 214.371 344.656C214.517 345.021 214.371 345.459 214.005 345.605C213.713 345.751 213.421 345.751 213.056 345.751L213.129 345.825Z" fill="#FFFFFB"/>
<path d="M217 342.976C215.467 342.976 214.006 342.172 213.202 340.857C212.983 340.492 213.129 340.054 213.421 339.835C213.786 339.616 214.225 339.762 214.444 340.054C215.028 341.003 216.197 341.588 217.366 341.442C217.804 341.442 218.169 341.661 218.169 342.099C218.169 342.537 217.95 342.903 217.512 342.903C217.366 342.903 217.147 342.903 217 342.903V342.976Z" fill="#FFFFFB"/>
<path d="M220.433 340.273C219.046 340.273 217.731 339.762 216.708 338.812C216.416 338.52 216.416 338.082 216.708 337.789C217 337.497 217.439 337.497 217.731 337.789C218.607 338.593 219.776 338.958 220.872 338.812C221.31 338.812 221.675 339.031 221.675 339.469C221.675 339.908 221.456 340.273 221.018 340.273C220.799 340.273 220.653 340.273 220.433 340.273Z" fill="#FFFFFB"/>
<path d="M225.62 347.651C224.597 345.825 226.204 344.291 227.884 343.195C235.773 337.936 244.758 332.092 244.758 332.092C248.191 334.429 252.866 333.407 254.619 331.508C255.641 333.772 259.148 343.414 255.495 344.291C253.377 344.802 227.081 350.207 225.62 347.651Z" fill="#333333"/>
<path d="M228.98 348.673C227.008 348.673 225.62 348.454 225.254 347.87C224.305 346.263 225.108 344.583 227.665 342.903C235.481 337.716 244.466 331.873 244.539 331.8L244.758 331.654L244.977 331.8C248.264 334.064 252.72 332.968 254.4 331.288L254.765 330.85L254.984 331.361C256.007 333.626 258.49 340.565 257.102 343.414C256.81 344.071 256.299 344.51 255.642 344.656C255.422 344.656 237.161 348.673 229.053 348.673H228.98ZM225.912 347.431C227.154 349.55 250.894 345.021 255.422 343.925C255.861 343.779 256.226 343.56 256.445 343.122C257.541 340.857 255.715 335.087 254.546 332.165C252.501 333.845 248.191 334.722 244.831 332.603C243.443 333.48 235.335 338.812 228.176 343.56C225.985 345.021 225.328 346.263 226.058 347.505L225.912 347.431Z" fill="#FFFFFB"/>
<path d="M235.335 344.072C235.335 344.072 235.262 344.072 235.189 344.072C234.312 343.925 231.683 343.56 231.536 341.296C231.536 340.858 231.829 340.565 232.194 340.492C232.632 340.492 232.924 340.785 232.997 341.15C232.997 341.661 233.363 342.245 235.408 342.611C235.846 342.611 236.065 343.049 235.992 343.487C235.992 343.852 235.627 344.145 235.262 344.145L235.335 344.072Z" fill="#FFFFFB"/>
<path d="M239.06 341.15C237.526 341.15 236.065 340.273 235.189 338.958C234.97 338.593 235.043 338.155 235.408 337.936C235.773 337.717 236.211 337.79 236.431 338.155C237.015 339.031 238.038 339.616 239.133 339.689C239.571 339.689 239.864 340.054 239.864 340.492C239.864 340.857 239.498 341.223 239.133 341.223L239.06 341.15Z" fill="#FFFFFB"/>
<path d="M242.201 338.593C240.959 338.593 239.498 337.789 238.914 337.059C238.695 336.694 238.768 336.255 239.06 336.036C239.425 335.817 239.864 335.89 240.083 336.182C240.448 336.694 241.836 337.278 242.347 337.059C242.712 336.913 243.151 337.059 243.297 337.497C243.443 337.862 243.297 338.301 242.859 338.447C242.639 338.52 242.347 338.593 242.128 338.593H242.201Z" fill="#FFFFFB"/>
<path d="M62.9212 50.7595C61.7525 53.9736 71.8327 58.1372 83.1548 58.1372C94.4769 58.1372 105.434 53.6814 103.608 50.7595C101.928 48.0569 94.5499 50.0291 83.1548 50.0291C71.7597 50.0291 64.3821 46.3768 62.8482 50.7595H62.9212Z" fill="#CDCDCD"/>
<path d="M83.1547 58.5025C92.9429 58.5025 102.293 55.2155 103.9 52.3667C104.265 51.7823 104.265 51.1249 103.9 50.6136C102.731 48.7144 99.1518 48.9335 93.3081 49.2988C90.3863 49.5179 87.0262 49.737 83.1547 49.737C79.2833 49.737 75.4119 49.2257 72.4901 48.8605C67.1578 48.13 63.6516 47.6918 62.5559 50.6866C62.3368 51.344 62.4828 52.0015 62.9211 52.7319C64.8934 55.5076 73.1475 58.5756 83.0817 58.5756L83.1547 58.5025ZM98.8596 49.664C101.197 49.664 102.731 49.9562 103.388 50.9058C103.608 51.271 103.608 51.5632 103.388 52.0015C101.928 54.6311 92.5776 57.7721 83.2278 57.7721C73.8779 57.7721 65.4777 54.9233 63.5785 52.2206C63.2133 51.7093 63.1403 51.271 63.2863 50.8327C64.1629 48.2761 67.3038 48.7144 72.4901 49.4449C75.4119 49.8101 79.1373 50.3214 83.3009 50.3214C87.4645 50.3214 90.5323 50.1023 93.4542 49.8831C95.5725 49.737 97.3986 49.5909 98.9326 49.5909L98.8596 49.664Z" fill="#CDCDCD"/>
<path d="M75.7041 41.7749C75.7772 50.0291 78.5529 56.1649 63.3594 63.3234C72.417 75.8142 81.3286 80.4161 81.3286 80.4161C81.3286 80.4161 100.393 71.7967 106.968 66.1722C103.534 63.6886 100.028 61.8625 96.8143 59.598C90.6054 55.2153 94.2577 45.5002 93.0159 41.921L75.6311 41.7749H75.7041Z" fill="#FDA98B"/>
<path d="M72.9283 13.5064C80.3059 3.20696 97.6908 5.8366 99.7361 21.6145C101.708 37.3193 94.1846 49.664 89.7288 50.8327C85.7113 51.9284 81.7668 52.4397 78.4798 50.1753C69.7143 44.2586 66.3542 22.7832 73.0013 13.5064H72.9283Z" fill="#FDA98B"/>
<path d="M94.4039 2.98773C106.091 12.3376 102.512 18.4004 99.5171 32.9365C100.759 25.0475 91.482 12.4106 93.016 15.6246C97.9101 25.778 90.7516 16.282 80.3791 20.5917C79.6487 20.8839 79.0643 20.7378 76.1425 19.9343C73.1476 19.0578 69.5684 30.8912 69.5684 30.8912C66.5004 25.7049 66.1352 16.9395 66.1352 16.9395C67.0848 -0.372369 88.5602 -3.29419 90.0211 3.13383C90.8977 3.13383 93.016 1.89205 94.4039 2.98773Z" fill="#7B3B23"/>
<path d="M89.8018 3.42597C89.5826 3.42597 89.4365 3.57206 89.4365 3.7912C89.4365 4.66775 89.4366 7.80871 86.7339 10.5114C86.5878 10.6575 86.5878 10.8766 86.7339 11.0227C87.9026 12.1915 91.7009 3.27988 89.8018 3.42597Z" fill="#682C1C"/>
<path d="M98.202 14.7481C99.0785 14.602 97.5446 8.46615 92.5045 5.32518C92.0662 5.10604 91.701 5.69041 92.1393 5.98259C95.1341 7.80873 97.2524 11.0227 97.7637 14.4559C97.7637 14.675 97.9829 14.8211 98.202 14.7481Z" fill="#682C1C"/>
<path d="M92.5777 14.2368C92.2855 14.0177 91.1167 12.7029 91.628 10.8767C91.7741 10.4385 91.0437 10.2193 90.8976 10.6576C90.3132 12.7759 91.555 14.456 92.1394 14.8212C92.5777 15.0403 92.9429 14.456 92.5046 14.1638L92.5777 14.2368Z" fill="#682C1C"/>
<path d="M99.8092 22.8562C100.832 18.5465 101.124 18.3273 100.613 18.2543C100.028 18.1082 99.9553 18.9848 99.0787 22.7101C98.9326 23.1484 99.6631 23.3675 99.8092 22.8562Z" fill="#682C1C"/>
<path d="M78.6259 4.52173C80.5982 2.62255 84.9079 1.52686 87.3914 3.13387C87.5375 3.20691 87.7566 3.13387 87.9027 2.98778C88.6332 1.81904 81.986 0.21204 78.1146 4.01041C77.7493 4.37564 78.2607 4.88696 78.6259 4.52173Z" fill="#682C1C"/>
<path d="M77.0189 10.5845C79.5024 8.02787 83.0087 8.83137 84.7618 10.0001C84.9079 10.1462 85.127 10.0001 85.2731 9.92706C85.8574 9.12356 80.0868 6.34782 76.5076 10.1462C76.1424 10.5114 76.7267 11.0227 77.0189 10.6575V10.5845Z" fill="#682C1C"/>
<path d="M84.9078 5.17918C81.8399 4.37568 82.059 6.494 82.8625 5.98268C83.666 5.47136 85.4922 5.83659 86.0765 6.78619C86.5148 7.58969 87.6835 5.90964 84.9078 5.17918Z" fill="#682C1C"/>
<path d="M80.452 19.4229C79.9407 17.8159 80.7442 15.6976 82.2051 14.9671C82.6434 14.748 82.2782 14.0906 81.8399 14.3097C80.0868 15.2593 79.1372 17.6698 79.7946 19.6421C79.9407 20.0803 80.5981 19.8612 80.525 19.4229H80.452Z" fill="#682C1C"/>
<path d="M90.8975 18.7657C90.8975 16.2091 86.9531 12.9951 86.6609 14.3099C86.6609 14.5291 86.734 14.6751 86.9531 14.7482C88.1219 14.9673 90.1671 17.3778 90.1671 18.7657C90.1671 20.1536 90.8975 19.277 90.8975 18.7657Z" fill="#682C1C"/>
<path d="M75.4119 18.8386C74.3162 17.4507 73.5127 15.6976 74.4623 12.9949C74.6084 12.5567 73.951 12.2645 73.8049 12.7758C72.7092 15.8437 73.7319 17.7429 74.9006 19.2769C75.1928 19.6421 75.7771 19.2769 75.4849 18.8386H75.4119Z" fill="#682C1C"/>
<path d="M69.6412 22.9292C70.3716 22.637 69.6412 22.7831 68.6916 18.5465C68.5455 18.1082 67.8881 18.2543 67.9612 18.6926C68.1073 19.35 68.9837 23.1484 69.6412 22.8562V22.9292Z" fill="#682C1C"/>
<path d="M68.5455 13.7985C68.9108 11.5341 70.7369 8.46613 72.9283 7.37045C73.0744 7.2974 73.2205 7.07827 73.0744 6.85913C72.1248 4.8869 66.3542 13.7985 68.1073 14.0907C68.3264 14.0907 68.4725 14.0176 68.5455 13.7985Z" fill="#682C1C"/>
<path d="M101.489 28.6268C98.4943 27.7502 98.2752 34.0321 98.2752 37.1001C98.2752 43.2359 106.164 30.0146 101.489 28.6268Z" fill="#FDA98B"/>
<path d="M100.832 31.6947C100.759 31.4025 100.32 31.5486 100.394 31.8408C100.905 33.5939 100.394 34.5434 99.663 34.9817C99.59 34.9817 99.517 35.2009 99.59 35.2739C99.9552 36.0044 101.562 34.1782 100.832 31.6947Z" fill="#EE795C"/>
<path d="M68.0343 28.5538C71.0292 27.6772 71.2483 33.9591 71.2483 37.0271C71.2483 43.1629 63.3594 29.9416 68.0343 28.5538Z" fill="#FDA98B"/>
<path d="M68.6918 31.6217C68.7648 31.3295 69.2031 31.4756 69.13 31.7678C68.6187 33.5209 69.13 34.4704 69.8605 34.9087C69.9335 34.9087 70.0065 35.1279 69.9335 35.2009C69.5683 35.9314 67.9613 34.1052 68.6918 31.6217Z" fill="#EE795C"/>
<path d="M91.701 31.2563C92.6506 31.2563 93.4541 27.531 91.0436 27.531C88.6331 27.531 90.094 31.2563 91.701 31.2563Z" fill="#333333"/>
<path d="M77.0919 31.4026C76.1423 31.4026 75.3388 27.6772 77.7493 27.6772C80.1598 27.6772 78.6989 31.4026 77.0919 31.4026Z" fill="#333333"/>
<path d="M92.9429 48.4222C92.7968 48.3491 92.6507 48.4222 92.5776 48.4222C90.021 51.7823 80.8903 52.878 76.5806 48.13C76.3615 47.8378 75.9232 48.203 76.1424 48.4952C82.5704 55.5076 94.6229 49.5909 92.9429 48.3491V48.4222Z" fill="#EE795C"/>
<path d="M88.487 23.8058C91.701 22.491 98.0559 25.1936 96.2298 25.8511C95.6454 26.0702 93.7462 25.3397 93.0888 25.2667C91.7009 25.1206 89.2174 25.705 88.3408 24.9745C87.9756 24.6823 88.0487 23.9519 88.487 23.8058Z" fill="#7B3B23"/>
<path d="M81.1825 24.8284C80.379 25.6319 77.8224 25.1206 76.4345 25.2667C75.7771 25.3397 73.8779 26.1432 73.2935 25.9971C71.4674 25.4128 77.6763 22.4909 80.9633 23.6597C81.4016 23.8058 81.4747 24.4632 81.1095 24.8284H81.1825Z" fill="#7B3B23"/>
<path d="M86.0036 37.3922C86.0767 36.9539 85.4192 36.9539 84.981 36.8078C83.374 36.4426 83.301 37.2461 84.0314 30.4529C84.1775 29.1381 84.3966 28.4076 83.9583 28.4076C83.52 28.4076 83.6662 28.9189 83.447 30.4529C82.6435 37.8305 82.6435 36.9539 85.6384 37.6844C85.7845 37.6844 85.9306 37.6844 86.0036 37.4653V37.3922Z" fill="#EE795C"/>
<path d="M88.7792 43.1629C89.2175 42.5055 87.9026 42.6515 79.9406 41.848C77.8953 41.6289 84.9808 48.8604 88.7792 43.1629Z" fill="white"/>
<path d="M57.4427 337.391C54.6669 339.509 51.672 340.02 47.8006 337.829L48.385 318.764L60.6567 319.129L57.4427 337.391Z" fill="#FDA98B"/>
<path d="M46.1936 349.443C47.5084 350.393 47.2893 350.101 75.1197 351.416C80.6712 351.708 80.9633 348.786 78.0415 347.033C73.6588 344.33 57.8079 335.565 56.7852 336.149C55.9087 336.66 53.9365 337.756 52.4025 337.756C50.3572 337.756 47.7276 337.391 47.5815 337.756C45.6823 341.189 43.0526 347.179 46.2666 349.516L46.1936 349.443Z" fill="#F2F2F2"/>
<path d="M75.7771 351.781C78.1877 351.781 79.7947 351.124 80.1599 349.955C80.5251 348.859 79.7947 347.617 78.2607 346.668C75.9963 345.28 58.1001 334.907 56.6392 335.784C55.8357 336.222 53.8634 337.318 52.4025 337.318C51.526 337.318 50.6494 337.318 49.7729 337.245C48.0198 337.099 47.4354 337.099 47.2163 337.464C45.3171 340.97 42.6144 347.179 45.9745 349.663C46.7049 350.198 51.526 350.661 60.4376 351.05C64.1629 351.197 68.9109 351.416 75.0467 351.708C75.2658 351.708 75.485 351.708 75.7041 351.708L75.7771 351.781ZM57.0044 336.441C58.4654 336.441 72.7823 344.184 77.8225 347.325C78.9912 348.056 79.6486 349.005 79.4294 349.736C79.1372 350.685 77.5302 351.124 75.1197 351.05C68.9839 350.758 64.2359 350.539 60.4376 350.393C47.4354 349.809 47.2894 349.809 46.4128 349.151C43.491 347.033 45.9745 341.262 47.8006 337.975C48.0928 337.975 48.9694 337.975 49.6999 337.975C50.5764 337.975 51.526 338.121 52.4025 338.048C54.0095 338.048 55.9818 337.026 57.0044 336.368V336.441Z" fill="#CDCDCD"/>
<path d="M44.8787 344.257C44.6596 345.061 44.5135 345.937 44.5135 346.814C44.5135 347.69 44.8057 348.64 45.4631 349.297C46.1205 349.955 47.0702 350.32 47.8737 350.539C48.7502 350.685 49.5537 350.758 50.4303 350.904C53.7904 351.269 57.1504 351.489 60.5835 351.708C63.9436 351.854 67.3768 352 70.7369 352C72.4169 352 74.097 352 75.8501 351.781C76.7266 351.708 77.5301 351.635 78.4067 351.416L78.6989 351.269C78.7719 351.269 78.918 351.123 78.9911 351.05C79.1372 350.904 79.2833 350.758 79.4293 350.539C79.7215 350.174 79.8676 349.736 79.7946 349.297C79.7946 349.736 79.6485 350.101 79.3563 350.466C79.2102 350.612 79.0642 350.758 78.9181 350.904C78.845 350.904 78.772 350.977 78.6259 351.05H78.3337C77.5302 351.343 76.6536 351.343 75.8501 351.416C74.17 351.416 72.49 351.416 70.8099 351.416C67.4498 351.343 64.0167 351.196 60.6566 350.977C57.2965 350.831 53.9364 350.612 50.5033 350.32C49.6998 350.247 48.8232 350.247 48.0197 350.101C47.2162 349.955 46.3397 349.662 45.7553 349.078C45.0979 348.494 44.8787 347.69 44.7327 346.814C44.6596 346.01 44.7327 345.134 44.9518 344.33L44.8787 344.257Z" fill="#CDCDCD"/>
<path d="M63.2862 339.509C62.3366 340.751 61.0218 341.774 59.5609 342.358L63.2862 339.509Z" fill="#F2E8DE"/>
<path d="M59.634 342.723C61.168 342.139 62.5558 341.043 63.5054 339.728L62.9211 339.29C61.9715 340.532 60.7297 341.481 59.3418 342.066L59.634 342.723Z" fill="#CDCDCD"/>
<path d="M65.9891 341.116C65.9891 342.212 63.7977 343.6 62.775 344.111L65.9891 341.116Z" fill="#F2E8DE"/>
<path d="M62.9211 344.476C62.9211 344.476 66.5003 342.869 66.3542 341.116H65.6238C65.6238 341.92 63.8707 343.234 62.6289 343.819L62.9211 344.476Z" fill="#CDCDCD"/>
<path d="M68.9109 342.796C68.2535 344.33 66.5734 345.061 65.3317 345.572L68.9109 342.796Z" fill="#F2E8DE"/>
<path d="M65.4777 345.937C66.7925 345.353 68.5456 344.622 69.203 343.015L68.5456 342.723C67.9612 344.111 66.4273 344.768 65.2585 345.28V345.645C65.3316 345.645 65.4777 346.01 65.4777 346.01V345.937Z" fill="#CDCDCD"/>
<path d="M71.9787 349.662C74.2431 349.662 76.7267 349.443 77.1649 347.252L76.4345 347.106C75.9962 349.005 73.3666 349.005 70.9561 348.932C70.6639 348.932 70.2986 348.932 70.0064 348.932V349.662C70.2986 349.662 70.5908 349.662 70.9561 349.662C71.2482 349.662 71.6135 349.662 71.9787 349.662Z" fill="#CDCDCD"/>
<path d="M102.877 344.111C102.658 344.914 102.512 345.791 102.512 346.667C102.512 347.544 102.804 348.494 103.461 349.151C104.119 349.808 105.068 350.174 105.872 350.393C106.748 350.539 107.552 350.612 108.429 350.758C111.789 351.123 115.149 351.342 118.582 351.562C121.942 351.708 125.375 351.854 128.735 351.854C130.415 351.854 132.095 351.854 133.848 351.635C134.725 351.562 135.529 351.488 136.405 351.269L136.697 351.123C136.77 351.123 136.916 350.977 136.989 350.904C137.136 350.758 137.282 350.612 137.428 350.393C137.72 350.028 137.866 349.589 137.793 349.151C137.793 349.589 137.647 349.954 137.355 350.32C137.209 350.466 137.062 350.612 136.916 350.758C136.843 350.758 136.77 350.831 136.624 350.904H136.332C135.529 351.196 134.652 351.196 133.848 351.269C132.168 351.269 130.488 351.269 128.808 351.269C125.448 351.196 122.015 351.05 118.655 350.831C115.295 350.685 111.935 350.466 108.502 350.174C107.698 350.101 106.822 350.101 106.018 349.954C105.215 349.808 104.338 349.516 103.754 348.932C103.096 348.347 102.877 347.544 102.731 346.667C102.658 345.864 102.731 344.987 102.95 344.184L102.877 344.111Z" fill="#CDCDCD"/>
<path d="M115.66 337.099L105.945 338.048L104.192 320.006L116.098 320.298L115.66 337.099Z" fill="#FDA98B"/>
<path d="M104.192 349.297C105.507 350.247 105.287 349.955 133.118 351.27C138.669 351.562 138.962 348.64 136.04 346.887C131.657 344.184 115.806 335.419 114.783 336.003C111.935 337.683 110.474 337.975 106.018 337.318C105.287 337.245 100.393 346.522 104.192 349.297Z" fill="#F2F2F2"/>
<path d="M133.775 351.635C136.186 351.635 137.793 350.977 138.158 349.808C138.523 348.713 137.793 347.471 136.259 346.521C133.994 345.134 116.098 334.761 114.637 335.638C111.935 337.172 110.62 337.537 106.091 336.952C105.141 336.806 103.607 340.532 103.607 340.678C102.804 342.65 101.27 347.544 104.046 349.589C104.776 350.125 109.597 350.588 118.509 350.977C122.234 351.123 126.982 351.342 133.118 351.635C133.337 351.635 133.556 351.635 133.775 351.635ZM115.003 336.295C116.463 336.295 130.78 344.038 135.821 347.179C136.989 347.909 137.647 348.859 137.428 349.589C137.135 350.539 135.528 350.977 133.118 350.904C126.982 350.612 122.234 350.393 118.436 350.247C105.434 349.662 105.287 349.662 104.411 349.005C103.461 348.348 103.023 347.106 103.096 345.426C103.315 342.066 105.434 338.121 106.018 337.683C110.401 338.267 112.008 338.048 114.93 336.295H115.003Z" fill="#CDCDCD"/>
<path d="M117.486 342.577C117.486 342.577 117.559 342.577 117.632 342.577C119.166 341.993 120.554 340.897 121.504 339.582C121.65 339.436 121.577 339.217 121.504 339.071C121.358 338.925 121.138 338.998 120.992 339.071C120.043 340.313 118.801 341.262 117.413 341.847C117.194 341.92 117.121 342.139 117.194 342.285C117.194 342.431 117.413 342.504 117.559 342.504L117.486 342.577Z" fill="#CDCDCD"/>
<path d="M120.773 344.33C120.773 344.33 120.846 344.33 120.919 344.33C120.919 344.33 124.499 342.723 124.352 340.97C124.352 340.751 124.133 340.605 123.987 340.605C123.768 340.605 123.622 340.824 123.622 340.97C123.622 341.774 121.869 343.015 120.627 343.6C120.408 343.673 120.335 343.892 120.408 344.111C120.408 344.257 120.627 344.33 120.773 344.33Z" fill="#CDCDCD"/>
<path d="M123.476 345.791C124.791 345.207 126.544 344.476 127.201 342.869C127.274 342.65 127.201 342.504 126.982 342.358C126.763 342.285 126.617 342.358 126.471 342.577C125.886 343.965 124.353 344.622 123.184 345.133V345.499C123.257 345.499 123.403 345.864 123.403 345.864L123.476 345.791Z" fill="#CDCDCD"/>
<path d="M129.977 349.517C132.241 349.517 134.725 349.297 135.163 347.106C135.163 346.887 135.09 346.741 134.871 346.668C134.652 346.668 134.506 346.741 134.433 346.96C133.995 348.859 131.365 348.859 128.954 348.786C128.662 348.786 128.297 348.786 128.005 348.786C127.786 348.786 127.64 348.932 127.64 349.151C127.64 349.37 127.786 349.517 128.005 349.517C128.297 349.517 128.589 349.517 128.954 349.517C129.247 349.517 129.612 349.517 129.977 349.517Z" fill="#CDCDCD"/>
<path d="M47.9467 139.364C47.8737 142.651 43.1257 333.739 45.7554 334.031C47.6546 334.177 60.1453 335.126 60.5836 333.227C75.4849 265.222 82.4243 198.896 82.4243 198.896C90.6784 251.27 81.4747 250.54 102.658 332.058C103.096 333.739 117.998 334.688 117.998 332.205C117.998 316.865 117.194 130.745 117.998 143.966C108.209 143.308 47.8737 139.364 47.8737 139.364H47.9467Z" fill="#51BCFE"/>
<path d="M53.9366 334.761C57.3697 334.761 60.6567 334.469 60.9489 333.3C74.0241 273.841 81.0365 214.893 82.4974 201.672C85.127 218.911 85.7845 230.16 86.4419 241.117C87.6106 261.058 88.7794 279.904 102.366 332.205C102.804 333.885 111.497 334.469 115.368 333.958C117.486 333.665 118.509 333.154 118.509 332.278C118.436 313.943 117.779 158.137 118.363 144.404H118.582V143.966C118.582 143.235 118.582 142.943 118.144 142.943C117.925 142.943 117.852 142.943 117.778 143.601C106.676 142.87 48.8233 139.072 48.1659 139.072H47.8007V140.167C47.5085 153.097 46.4128 198.677 45.6093 242.066C44.0023 334.25 45.1711 334.396 45.9015 334.469C46.1937 334.469 50.2843 334.907 54.0827 334.907L53.9366 334.761ZM82.3513 196.047L82.0591 198.823C82.0591 199.481 74.9006 265.952 60.2185 333.154C59.9993 334.25 51.6721 334.177 45.9746 333.665C44.3676 329.064 46.2668 226.873 48.3121 140.094V139.729C53.3522 140.094 106.895 143.528 117.486 144.258C117.486 145.354 117.486 147.253 117.413 150.759C117.413 155.288 117.34 162.008 117.34 170.701C117.34 185.456 117.34 206.128 117.34 232.205C117.413 275.156 117.632 319.641 117.632 332.205C117.632 332.424 117.267 332.716 116.098 333.008C112.008 333.885 103.388 332.862 102.95 331.985C89.3637 279.758 88.268 260.985 87.0993 241.044C86.4419 229.575 85.7114 217.669 82.7166 198.823L82.2783 196.047H82.3513Z" fill="#187EBC"/>
<path d="M82.2782 192.03C82.4973 192.03 82.6434 191.884 82.6434 191.665C84.2504 177.932 83.7391 169.167 83.3008 162.812C82.9356 157.333 82.7164 154.046 84.2504 151.343C84.3234 151.124 84.2504 150.905 84.1043 150.832C83.8852 150.759 83.666 150.832 83.5929 150.978C81.9859 153.9 82.2051 157.26 82.5704 162.885C83.0086 169.24 83.5199 177.932 81.9129 191.592C81.9129 191.811 82.059 191.957 82.2782 192.03Z" fill="#187EBC"/>
<path d="M105.215 330.525C105.215 330.525 105.215 330.525 105.288 330.525C105.507 330.525 105.58 330.232 105.58 330.086C95.8647 292.176 93.089 259.67 91.0437 235.93C89.7289 220.299 88.7793 208.977 86.3688 202.256C86.3688 202.037 86.0766 201.964 85.8575 202.037C85.6383 202.037 85.5653 202.329 85.6383 202.548C87.9758 209.196 88.9254 220.445 90.2402 236.003C92.2855 259.743 95.0612 292.322 104.776 330.305C104.776 330.451 104.995 330.598 105.141 330.598L105.215 330.525Z" fill="#187EBC"/>
<path d="M116.61 188.597C116.756 188.597 116.829 188.597 116.902 188.451C117.048 188.305 116.975 188.012 116.829 187.939C108.283 181.657 108.21 179.539 108.136 167.925C108.136 166.537 108.136 165.076 108.136 163.469C108.136 163.25 107.99 163.104 107.771 163.104C107.552 163.104 107.406 163.25 107.406 163.469C107.406 165.076 107.406 166.61 107.406 167.925C107.552 179.612 107.552 182.023 116.391 188.524C116.391 188.524 116.537 188.597 116.61 188.597Z" fill="#187EBC"/>
<path d="M48.1658 188.451H49.6267C59.4148 188.158 59.4149 187.866 59.634 174.426C59.634 172.673 59.634 170.701 59.7071 168.436C59.7071 168.217 59.561 168.071 59.3418 168.071C59.1227 168.071 58.9766 168.217 58.9766 168.436C58.9766 170.701 58.9036 172.673 58.9036 174.499C58.8305 181.073 58.7574 184.433 57.6617 186.04C56.5661 187.574 54.3017 187.647 49.6998 187.793H48.2389C48.0198 187.793 47.8737 188.012 47.8737 188.232C47.8737 188.451 48.0198 188.597 48.2389 188.597L48.1658 188.451Z" fill="#187EBC"/>
<path d="M82.1319 197.581C82.3511 197.581 82.5703 197.435 82.5703 197.216C83.0816 195.39 84.7616 193.856 86.6608 193.637C86.88 193.637 87.0261 193.418 87.0261 193.199C87.0261 192.979 86.8069 192.833 86.5878 192.833C84.6156 193.052 82.7894 194.513 82.0589 196.413C80.0867 192.76 77.238 192.03 75.2657 192.614C75.0466 192.614 74.9735 192.906 74.9735 193.052C74.9735 193.272 75.2657 193.345 75.4118 193.345C77.1649 192.833 79.7945 193.564 81.5476 197.289C81.6207 197.508 81.8398 197.581 81.9859 197.581H82.1319Z" fill="#187EBC"/>
<path d="M105.434 78.2978C104.338 100.431 107.114 167.925 129.685 175.083C162.555 181.73 141.226 151.782 142.906 136.442C144.221 124.17 136.259 113.433 136.989 105.836C138.45 89.1085 133.337 81.2926 127.567 74.7916C124.352 71.1393 122.161 67.7061 116.829 67.1948C112.154 66.7565 105.653 73.842 105.434 78.2978Z" fill="#F2F2F2"/>
<path d="M137.793 176.398C141.737 176.398 144.586 175.449 146.266 173.622C150.211 169.386 148.092 161.278 145.828 152.731C144.294 146.961 142.76 141.044 143.198 136.515C144.002 129.503 141.737 123.002 139.765 117.304C138.231 112.921 136.916 109.123 137.209 105.836C138.742 88.5973 133.118 80.6353 127.713 74.4995C127.274 74.0612 126.909 73.5499 126.471 73.1116C123.768 69.9706 121.504 67.2679 116.683 66.8297C114.71 66.6836 112.373 67.6332 110.036 69.6785C107.114 72.2351 104.995 75.6682 104.922 78.2978C104.338 91.0078 105.068 113.36 108.209 132.352C111.058 149.81 117.121 171.504 129.466 175.449C132.607 176.106 135.382 176.398 137.72 176.398H137.793ZM116.391 67.5601C116.537 67.5601 116.683 67.5601 116.756 67.5601C121.212 67.9984 123.476 70.555 126.033 73.6229C126.398 74.0612 126.836 74.5725 127.274 75.0108C132.607 81.0005 138.085 88.8895 136.624 105.836C136.332 109.269 137.647 113.141 139.181 117.596C141.08 123.221 143.271 129.576 142.541 136.442C142.03 141.117 143.637 147.107 145.171 152.951C147.289 160.986 149.48 169.24 145.755 173.184C143.198 175.96 137.939 176.471 129.685 174.791C108.648 168.144 104.411 105.763 105.726 78.3709C105.872 76.0334 107.844 72.6733 110.62 70.2628C112.592 68.5097 114.71 67.5601 116.391 67.5601Z" fill="#CDCDCD"/>
<path d="M96.8142 59.5981C92.2854 70.701 74.4622 70.774 69.8604 59.5981C64.7472 59.8172 53.0598 63.2503 49.9189 65.4417C42.7604 70.4819 36.1863 169.24 46.5588 176.69C71.6865 178.589 92.6506 177.129 117.997 174.207C133.556 169.97 119.239 68.3635 119.02 67.6331C112.957 64.4191 96.0838 59.3059 96.8142 59.5981Z" fill="#F2F2F2"/>
<path d="M69.13 177.932C85.2 177.932 100.54 176.617 118.071 174.572C134.214 170.189 119.678 68.5098 119.385 67.5602V67.4141L119.166 67.341C115.076 65.2227 100.686 60.1826 97.2526 59.3791L96.8873 59.233C96.7412 59.233 96.5951 59.233 96.5951 59.233L96.4491 59.3791V59.5251C94.0386 65.3688 88.1949 67.4871 83.4469 67.4871C78.6989 67.4871 72.7822 65.3688 70.2987 59.3791V59.1599C70.2256 59.1599 69.9335 59.1599 69.9335 59.1599C64.8203 59.379 52.9869 62.8852 49.8459 65.0766C45.244 68.2906 41.2265 107.005 40.9344 136.881C40.8613 150.248 41.3726 173.33 46.4128 176.91H46.4858H46.5588C54.4478 177.494 61.8254 177.786 69.13 177.786V177.932ZM118.728 67.8523C119.385 72.2351 132.826 169.751 117.924 173.842C92.5776 176.763 71.8326 178.224 46.7049 176.325C43.2718 173.622 41.4456 159.306 41.5917 136.954C41.8839 104.448 46.1936 68.5098 50.1381 65.734C53.206 63.6157 64.455 60.2556 69.6413 59.9634C71.9057 65.1497 77.165 68.2906 83.4469 68.2906C89.6558 68.2906 94.842 65.1497 97.0334 60.0365C99.2978 60.7669 113.177 65.0036 118.728 67.9254V67.8523Z" fill="#CDCDCD"/>
<path d="M9.23258 117.158C7.99081 119.934 5.79939 127.311 6.52984 130.233C7.11421 132.425 11.4239 145.646 21.0659 149.883C31.2193 154.265 34.4334 167.121 42.7606 160.62C47.2163 154.923 50.1382 142.724 50.1382 142.724C55.1053 131.329 44.4406 137.465 36.4055 126.289C34.9446 124.244 35.0907 123.294 37.209 121.541C56.8583 105.252 50.2112 65.5879 50.2112 65.5879C38.67 64.3461 24.5721 87.7937 21.8694 99.0428C19.9702 106.932 12.3735 110.292 9.23258 117.158Z" fill="#F2F2F2"/>
<path d="M38.3778 162.739C39.7657 162.739 41.2996 162.154 42.9797 160.839C47.4354 155.069 50.2843 143.235 50.4304 142.797C51.6721 139.948 52.0373 138.049 51.4529 136.661C50.7955 135.127 49.1155 134.47 46.9972 133.593C44.0753 132.425 40.1309 130.891 36.6978 126.07C35.3099 124.171 35.456 123.44 37.4282 121.833C57.0044 105.617 50.6495 65.9531 50.5764 65.5879V65.2957H50.2842C38.0126 63.9809 24.1339 88.3782 21.5042 99.0428C20.4816 103.353 17.5598 106.42 14.7841 109.269C12.5927 111.607 10.3283 113.944 8.86737 117.012C7.69864 119.569 5.36113 127.165 6.16463 130.306C6.16463 130.452 10.3283 145.573 20.9199 150.175C24.7913 151.855 27.6401 154.777 30.1967 157.406C32.8994 160.255 35.3829 162.739 38.4509 162.739H38.3778ZM42.4684 160.328C37.6474 164.053 34.7255 161.059 30.6349 156.895C28.0783 154.265 25.1565 151.27 21.139 149.517C10.9126 145.062 6.82206 130.306 6.82206 130.16C6.0916 127.458 8.20998 120.226 9.5248 117.377C10.8396 114.455 13.104 112.118 15.2953 109.781C18.1441 106.786 21.066 103.718 22.1616 99.1889C25.0104 87.5747 38.8891 65.2227 49.846 66.0262C50.3573 69.6054 55.3244 106.128 36.9169 121.322C34.6525 123.148 34.5063 124.39 36.1134 126.581C39.6926 131.548 43.7832 133.155 46.7781 134.324C48.8234 135.127 50.2843 135.712 50.7956 136.954C51.3069 138.122 50.9417 139.875 49.7729 142.578C49.7729 142.797 46.8511 154.777 42.4684 160.328Z" fill="#CDCDCD"/>
<path d="M106.968 64.2001C110.109 60.84 108.429 56.5303 101.343 57.9181C100.832 57.9912 100.394 57.6259 100.394 57.1877C100.394 55.5807 105.653 50.9788 103.169 50.6136C97.1066 49.664 86.6611 67.9254 83.301 67.9254C79.9409 67.9254 77.0191 58.9408 74.5355 55.8728C73.659 54.7772 65.9891 45.9386 63.3595 49.5909C61.8986 51.6362 63.3595 53.4623 62.7021 55.7998C61.9716 58.0642 60.2185 53.5354 58.1733 55.4346C55.5436 57.8451 55.9089 62.447 58.1733 65.2227C65.5509 74.4264 98.4945 73.3308 107.041 64.2731L106.968 64.2001Z" fill="#F2F2F2"/>
<path d="M80.306 72.0159C90.3132 72.0159 102.293 69.7514 107.187 64.4921C108.794 62.8121 109.232 60.8399 108.429 59.3789C107.406 57.5528 104.776 56.8954 101.197 57.6259C101.051 57.6259 100.905 57.6259 100.832 57.5528C100.832 57.5528 100.686 57.4067 100.686 57.2606C100.686 56.7493 101.562 55.6536 102.293 54.631C103.462 53.097 104.411 51.7822 104.046 50.9787C103.9 50.6135 103.608 50.4674 103.096 50.3213C99.2979 49.7369 94.2578 55.7267 89.875 61.059C87.1723 64.273 84.3965 67.5601 83.2278 67.5601C80.6712 67.5601 78.8451 63.6886 77.2381 60.2555C76.3616 58.4294 75.558 56.7493 74.7545 55.6536C74.7545 55.5806 68.6917 48.276 64.8934 48.3491C64.0899 48.3491 63.4325 48.7143 62.9942 49.3717C62.1176 50.6135 62.2637 51.8552 62.3368 53.024C62.4098 53.9005 62.4829 54.7771 62.2637 55.7267C62.1176 56.0919 62.0446 56.0919 62.0446 56.0919C61.8985 56.0919 61.4602 55.7997 61.1681 55.5806C60.3646 54.9232 59.1228 53.9736 57.808 55.1423C54.9592 57.7719 55.4705 62.593 57.808 65.4417C60.8759 69.2401 68.1804 71.5776 77.9686 71.9428C78.699 71.9428 79.5025 71.9428 80.306 71.9428V72.0159ZM103.827 58.0641C105.799 58.0641 107.187 58.6485 107.771 59.7442C108.429 60.9129 107.99 62.593 106.676 63.9808C102.293 68.6558 90.5324 71.6506 78.0416 71.2123C68.6187 70.8471 61.3141 68.5097 58.3923 65.0035C56.347 62.4469 55.8357 58.0641 58.3923 55.7267C59.1227 54.9962 59.8532 55.4345 60.8028 56.1649C61.3872 56.6032 61.8254 56.9684 62.3368 56.8224C62.6289 56.7493 62.8481 56.4571 62.9942 55.9458C63.3594 54.8501 63.2133 53.8275 63.1402 52.9509C62.9942 51.8552 62.9212 50.8326 63.6516 49.81C64.0169 49.2986 64.4551 49.0795 65.0395 49.0795C65.0395 49.0795 65.0395 49.0795 65.1125 49.0795C67.9613 49.0795 72.7823 54.2658 74.2432 56.0919C75.0467 57.1145 75.8502 58.7215 76.6537 60.5477C78.3337 64.2 80.233 68.2905 83.3009 68.2905C86.3688 68.2905 87.0262 65.7339 90.5324 61.4973C94.6229 56.6032 99.7362 50.4674 103.096 50.9787C103.242 50.9787 103.388 50.9787 103.462 51.1248C103.681 51.5631 102.512 53.097 101.781 54.1197C100.832 55.3614 100.028 56.4571 100.028 57.1876C100.028 57.5528 100.174 57.845 100.467 58.0641C100.759 58.2833 101.124 58.3563 101.416 58.2833C102.293 58.1372 103.169 57.9911 103.9 57.9911L103.827 58.0641Z" fill="#CDCDCD"/>
<path d="M142.176 177.129C138.523 177.494 133.921 177.056 132.095 175.96C132.387 189.035 132.534 182.169 131.365 186.844C130.707 189.473 126.398 198.823 128.224 200.722C129.612 202.183 131.219 197.874 132.46 195.317C134.141 191.811 138.962 198.677 133.337 206.347C132.753 207.077 129.758 210.657 132.095 212.629C134.725 210.437 136.843 207.735 138.377 204.74C136.697 209.853 137.428 213.432 138.596 213.14C140.715 212.702 143.417 194.44 140.276 185.675C139.911 184.652 140.057 184.652 142.176 177.056V177.129Z" fill="#FFA988"/>
<path d="M47.8007 154.996L56.5662 158.137L60.5107 148.714L51.3069 144.623L47.8007 154.996Z" fill="#FFA988"/>
<path d="M143.344 175.083C138.889 176.544 132.972 176.325 129.612 175.083C129.027 178.516 129.466 180.27 131.657 182.315C132.753 183.337 145.17 186.698 143.344 175.083Z" fill="#CDCDCD"/>
<path d="M53.8633 157.772C53.1329 158.502 48.9693 158.21 45.1709 156.676C46.8509 154.338 48.9692 146.961 50.3571 141.628C51.2336 141.994 55.9816 145.792 57.2234 146.815C58.0269 147.472 56.2008 155.507 53.9364 157.845L53.8633 157.772Z" fill="#CDCDCD"/>
<path d="M64.9664 174.572C69.0569 174.572 72.0519 173.841 76.0694 172.892C77.5303 172.527 79.2104 172.161 81.1096 171.723C92.5047 169.313 104.338 169.897 113.396 170.701C115.076 170.847 115.587 169.97 116.756 167.998C117.267 167.194 117.851 166.172 118.655 165.003C119.385 163.98 119.239 162.592 118.363 161.716C112.154 155.434 108.721 142.286 107.771 138.414C107.552 137.319 106.529 136.661 105.434 136.807C90.8246 138.707 77.7494 140.094 64.8934 137.319C64.309 137.173 63.7247 137.319 63.2134 137.611C62.702 137.976 62.4098 138.414 62.3368 138.999C60.8028 148.714 57.3697 157.333 52.0373 164.638C50.9417 166.172 51.8182 167.852 52.8408 169.751C53.2791 170.554 53.6443 171.358 54.0095 172.234C54.3748 173.038 55.1053 173.695 56.0549 173.841C59.7071 174.426 62.4829 174.718 64.8934 174.718L64.9664 174.572ZM99.2979 169.313C93.3812 169.313 87.0992 169.751 80.9634 171.066C79.0642 171.431 77.3842 171.869 75.9232 172.234C69.7144 173.695 65.9161 174.645 56.274 173.038C55.6166 172.965 55.0322 172.454 54.8131 171.869C54.4479 170.993 54.0096 170.116 53.5713 169.313C52.6217 167.486 51.8913 166.099 52.6948 164.93C58.1001 157.479 61.6063 148.787 63.1402 138.999C63.1402 138.633 63.4325 138.268 63.7246 138.049C64.0168 137.83 64.4551 137.757 64.8203 137.83C77.7494 140.679 90.8977 139.291 105.58 137.392C106.31 137.319 106.968 137.757 107.114 138.487C108.283 143.528 111.716 155.945 117.851 162.154C118.509 162.812 118.582 163.834 118.071 164.565C117.194 165.806 116.61 166.829 116.171 167.633C115.003 169.605 114.637 170.116 113.469 169.97C109.232 169.605 104.411 169.313 99.2979 169.313Z" fill="#CDCDCD"/>
<path d="M82.3513 69.7515C88.0489 69.7515 92.0664 65.807 95.5726 62.3008C96.9604 60.913 98.2753 59.6712 99.5901 58.7216C99.7362 58.5755 99.8092 58.3564 99.6631 58.2103C99.517 58.0642 99.2979 57.9911 99.1518 58.1372C97.837 59.0868 96.5222 60.4017 95.0613 61.7895C91.6281 65.1496 87.7567 69.021 82.3513 69.021C76.9459 69.021 82.1322 69.021 81.9861 69.021C76.5807 68.8749 70.5179 64.8574 63.3595 56.8955C63.2134 56.7494 62.9943 56.7494 62.8482 56.8955C62.7021 57.0415 62.7021 57.2607 62.8482 57.4068C70.0797 65.5148 76.3616 69.6054 81.9861 69.7515C82.1322 69.7515 82.2783 69.7515 82.3513 69.7515Z" fill="#CDCDCD"/>
<path d="M27.0557 127.75C27.2018 127.75 27.2747 127.75 27.3478 127.604C29.7583 124.024 31.9497 122.783 34.1411 123.659C34.5793 123.878 34.7985 123.586 34.8715 123.513C35.5289 122.564 32.461 117.669 30.0505 115.113C29.9044 114.967 29.6852 114.967 29.5391 115.113C29.3931 115.259 29.3931 115.478 29.5391 115.624C32.0227 118.181 33.9949 121.833 34.2871 122.929C31.0001 121.76 28.4435 124.828 26.7635 127.238C26.6174 127.385 26.7634 127.604 26.8365 127.75C26.8365 127.75 26.9826 127.75 27.0557 127.75Z" fill="#CDCDCD"/>
<path d="M58.029 98.4342C60.5303 139.336 106.309 122.865 111.723 112.821C115.618 105.622 108.453 96.5184 93.6362 92.5482C78.8193 88.578 57.5257 90.4347 58.029 98.4342Z" fill="url(#paint1_linear_9_2680)"/>
<path d="M75.3103 124.159C75.6628 124.254 76.0859 124.367 76.4385 124.461C90.5017 127.541 108.633 119.387 112.13 112.823C113.492 110.28 113.584 107.396 112.363 104.62C110.043 99.1759 103.155 94.4216 93.8471 91.9276C84.5394 89.4336 65.3279 89.4907 59.8867 94.0028C58.4271 95.2191 57.6536 96.6957 57.7453 98.3276C58.7607 115.974 67.5347 122.152 75.1501 124.193L75.3103 124.159ZM93.694 92.4989C102.72 94.9174 109.486 99.5624 111.703 104.825C112.822 107.421 112.716 110.072 111.482 112.42C108.426 118.184 90.6931 126.827 76.5593 123.728C68.9188 122.064 59.5172 116.254 58.4756 98.1406C58.397 96.7418 59.0426 95.4605 60.3037 94.4207C65.5465 90.085 81.4247 89.2114 93.6235 92.48L93.694 92.4989Z" fill="#CDCDCD"/>
<path d="M86.6608 71.5046C89.7288 71.5046 88.487 67.6332 87.0261 67.6332C84.1042 67.6332 84.6886 71.5046 86.6608 71.5046Z" fill="#CDCDCD"/>
<path d="M86.6609 71.7968C87.3913 71.7968 87.9756 71.5776 88.3409 71.2124C88.7061 70.8472 88.8522 70.4089 88.8522 69.8245C88.8522 68.6558 88.0487 67.2679 87.0261 67.2679C86.0035 67.2679 85.6382 67.4871 85.2 67.9254C84.8347 68.2906 84.6155 68.8749 84.6155 69.4593C84.6155 70.628 85.3461 71.7968 86.5878 71.7968H86.6609ZM87.0261 67.9254C87.6105 67.9254 88.1948 68.948 88.1948 69.8245C88.1948 70.7011 88.1948 70.482 87.8296 70.7741C87.5374 71.0663 87.1722 71.2124 86.5878 71.2124C85.7843 71.2124 85.273 70.3359 85.273 69.5324C85.273 68.7289 85.4191 68.7289 85.6382 68.4367C85.9304 68.1445 86.3687 67.9254 86.9531 67.9254H87.0261Z" fill="#CDCDCD"/>
<path d="M77.7494 70.8471C74.6815 70.8471 75.9233 66.9757 77.3842 66.9757C80.306 66.9757 79.7217 70.8471 77.7494 70.8471Z" fill="#CDCDCD"/>
<path d="M77.7492 71.2124C78.991 71.2124 79.7215 69.9706 79.7215 68.875C79.7215 67.7793 79.5024 67.7062 79.1371 67.341C78.6989 66.9027 78.1145 66.6836 77.311 66.6836C76.5075 66.6836 75.4848 68.0715 75.4848 69.2402C75.4848 70.4089 75.631 70.2628 75.9962 70.6281C76.3614 71.0663 76.9458 71.2124 77.6762 71.2124H77.7492ZM77.384 67.268C77.9684 67.268 78.4067 67.4141 78.6989 67.7793C78.918 68.0715 79.0641 68.4367 79.0641 68.875C79.0641 69.6785 78.5527 70.555 77.7492 70.555C76.9457 70.555 76.7997 70.4089 76.5075 70.1167C76.2153 69.8246 76.1423 69.4593 76.1423 69.1671C76.1423 68.2906 76.7997 67.268 77.311 67.268H77.384Z" fill="#CDCDCD"/>
<path d="M86.2228 73.9151C88.195 78.2248 87.7567 104.302 89.2907 90.6426C90.1672 82.8997 89.802 81.2197 89.5099 79.9049C87.0993 68.2175 89.1446 67.268 85.7114 69.0211C84.8349 69.4593 84.9809 71.4316 86.1497 73.9882L86.2228 73.9151Z" fill="#FFFFFB"/>
<path d="M78.1145 73.4038C76.1422 77.7135 76.5806 103.791 75.0466 90.1312C74.17 82.3884 74.5352 80.7083 74.8274 79.3935C77.2379 67.7062 75.1927 66.7566 78.6259 68.5097C79.5024 68.948 79.3563 70.9202 78.1876 73.4768L78.1145 73.4038Z" fill="#FFFFFB"/>
<defs>
<filter id="filter0_f_9_2680" x="0.803088" y="342.7" width="154.6" height="18.6" filterUnits="userSpaceOnUse" color-interpolation-filters="sRGB">
<feFlood flood-opacity="0" result="BackgroundImageFix"/>
<feBlend mode="normal" in="SourceGraphic" in2="BackgroundImageFix" result="shape"/>
<feGaussianBlur stdDeviation="2.65" result="effect1_foregroundBlur_9_2680"/>
</filter>
<filter id="filter1_f_9_2680" x="175.803" y="338.7" width="134.6" height="22.6" filterUnits="userSpaceOnUse" color-interpolation-filters="sRGB">
<feFlood flood-opacity="0" result="BackgroundImageFix"/>
<feBlend mode="normal" in="SourceGraphic" in2="BackgroundImageFix" result="shape"/>
<feGaussianBlur stdDeviation="2.65" result="effect1_foregroundBlur_9_2680"/>
</filter>
<linearGradient id="paint0_linear_9_2680" x1="229.37" y1="151.282" x2="238.003" y2="150.858" gradientUnits="userSpaceOnUse">
<stop stop-color="#51BCFE"/>
<stop offset="0.535" stop-color="#FE5151"/>
<stop offset="1" stop-color="#FEBA51"/>
</linearGradient>
<linearGradient id="paint1_linear_9_2680" x1="106.828" y1="124.709" x2="58.8162" y2="106.842" gradientUnits="userSpaceOnUse">
<stop stop-color="#51BCFE"/>
<stop offset="0.535" stop-color="#FE5151"/>
<stop offset="1" stop-color="#FEBA51"/>
</linearGradient>
</defs>
</svg>
